<?xml version="1.0" standalone="no"?><!DOCTYPE svg PUBLIC "-//W3C//DTD SVG 1.1//EN" "http://www.w3.org/Graphics/SVG/1.1/DTD/svg11.dtd"><svg t="1627382778397" class="icon" viewBox="0 0 1024 1024" version="1.1" xmlns="http://www.w3.org/2000/svg" p-id="2016" xmlns:xlink="http://www.w3.org/1999/xlink" width="200" height="200"><defs><style type="text/css">@font-face { font-family: feedback-iconfont; src: url("//at.alicdn.com/t/font_1031158_1uhr8ri0pk5.eot?#iefix") format("embedded-opentype"), url("//at.alicdn.com/t/font_1031158_1uhr8ri0pk5.woff2") format("woff2"), url("//at.alicdn.com/t/font_1031158_1uhr8ri0pk5.woff") format("woff"), url("//at.alicdn.com/t/font_1031158_1uhr8ri0pk5.ttf") format("truetype"), url("//at.alicdn.com/t/font_1031158_1uhr8ri0pk5.svg#iconfont") format("svg"); }
</style></defs><path d="M323.36 355.04a185.28 76.96 0 1 0 370.56 0 185.28 76.96 0 1 0-370.56 0Z" p-id="2017"></path><path d="M508.64 658.72c-92.64 0-169.12-28.32-182.88-65.12-1.6 20.64-2.4 45.6-2.4 76 0 42.56 82.88 77.12 185.28 77.12s185.44-34.56 185.44-77.12c0-30.4-0.8-55.68-2.24-76.64-13.28 37.12-90.08 65.76-183.2 65.76zM508.64 504.96c-92.64 0-169.12-28.32-182.88-65.12-1.6 20.64-2.4 45.6-2.4 76.16 0 42.4 82.88 76.96 185.28 76.96s185.44-34.56 185.44-76.96c0-30.56-0.8-55.84-2.24-76.8-13.28 37.12-90.08 65.76-183.2 65.76z" p-id="2018"></path><path d="M512.96 144m-76 0a76 76 0 1 0 152 0 76 76 0 1 0-152 0Z" p-id="2019"></path><path d="M143.04 511.04m-76 0a76 76 0 1 0 152 0 76 76 0 1 0-152 0Z" p-id="2020"></path><path d="M510.08 880.96m-76 0a76 76 0 1 0 152 0 76 76 0 1 0-152 0Z" p-id="2021"></path><path d="M880 513.92m-76 0a76 76 0 1 0 152 0 76 76 0 1 0-152 0Z" p-id="2022"></path><path d="M512 121.28A390.72 390.72 0 1 0 902.72 512 390.88 390.88 0 0 0 512 121.28z m0 733.44A342.72 342.72 0 1 1 854.72 512 342.72 342.72 0 0 1 512 854.72z" p-id="2023"></path></svg>