<?xml version="1.0" standalone="no"?><!DOCTYPE svg PUBLIC "-//W3C//DTD SVG 1.1//EN" "http://www.w3.org/Graphics/SVG/1.1/DTD/svg11.dtd"><svg t="1626488938511" class="icon" viewBox="0 0 1024 1024" version="1.1" xmlns="http://www.w3.org/2000/svg" p-id="3883" xmlns:xlink="http://www.w3.org/1999/xlink" width="200" height="200"><defs><style type="text/css"></style></defs><path d="M326.656 504.32c36.352 30.208 82.944 48.64 133.632 49.152v-6.144c0-104.448 84.992-189.44 189.44-189.44 7.168 0 14.336 0.512 21.504 1.024 2.56 0.512 4.608 0.512 7.168 1.024 1.536-15.872 1.536-31.744-0.512-48.128-11.776-98.304-91.136-177.152-189.44-187.904C358.4 109.568 248.32 210.944 248.32 337.92c0 67.072 30.208 126.976 78.336 166.4zM497.664 660.48c-15.36-20.48-26.112-44.032-32.256-68.608h-1.536c-67.584 0-129.536-26.624-174.592-70.144-103.936 56.32-178.176 161.28-190.464 285.184-1.536 13.824 9.728 26.112 23.552 26.112h239.616c21.504-72.192 69.632-133.632 135.68-172.544z m-6.656-112.64c0 49.152 22.528 93.184 57.344 122.368 27.648 22.528 62.464 36.352 100.864 36.352s73.728-13.824 100.864-36.352c39.936-32.768 62.976-84.48 56.32-141.312-8.704-72.192-67.072-130.56-139.264-138.24-95.232-11.264-176.128 63.488-176.128 157.184z m287.232 134.656c-33.28 31.744-78.848 51.712-128.512 51.712-49.664 0-95.232-19.456-128.512-51.712-76.8 41.472-131.072 118.784-140.288 209.408-1.024 10.24 7.168 18.944 17.408 18.944H901.12c10.24 0 18.432-8.704 17.408-18.944-9.728-90.624-64-167.936-140.288-209.408z" p-id="3884"></path></svg>