<?xml version="1.0" standalone="no"?><!DOCTYPE svg PUBLIC "-//W3C//DTD SVG 1.1//EN" "http://www.w3.org/Graphics/SVG/1.1/DTD/svg11.dtd"><svg t="1626489155842" class="icon" viewBox="0 0 1024 1024" version="1.1" xmlns="http://www.w3.org/2000/svg" p-id="1624" xmlns:xlink="http://www.w3.org/1999/xlink" width="200" height="200"><defs><style type="text/css"></style></defs><path d="M838.82 98.09H138.57a65.08 65.08 0 0 0-65 65v700.26a65.08 65.08 0 0 0 65 65h700.25a65.08 65.08 0 0 0 65-65V163.09a65.08 65.08 0 0 0-65-65z m15 765.26a15 15 0 0 1-15 15H138.57a15 15 0 0 1-15-15V163.09a15 15 0 0 1 15-15h700.25a15 15 0 0 1 15 15z" p-id="1625"></path><path d="M208.71 408.79H491.5a25 25 0 0 0 0-50H208.71a25 25 0 1 0 0 50zM763.5 658H208.71a25 25 0 0 0 0 50H763.5a25 25 0 0 0 0-50zM796.36 209.58a25 25 0 0 0-34.57 7.42L515.16 597.54a25 25 0 1 0 42 27.19l246.59-380.58a25 25 0 0 0-7.39-34.57z" p-id="1626"></path></svg>